<svg width="18" height="18" viewBox="0 0 18 18" fill="none" xmlns="http://www.w3.org/2000/svg">
<path d="M15.75 2.25V18H2.25V2.25H6.75C6.75 1.93945 6.80859 1.64941 6.92578 1.37988C7.04297 1.11035 7.2041 0.870117 7.40918 0.65918C7.61426 0.448242 7.85156 0.287109 8.12109 0.175781C8.39062 0.0644531 8.68359 0.00585938 9 0C9.31055 0 9.60059 0.0585938 9.87012 0.175781C10.1396 0.292969 10.3799 0.454102 10.5908 0.65918C10.8018 0.864258 10.9629 1.10156 11.0742 1.37109C11.1855 1.64062 11.2441 1.93359 11.25 2.25H15.75ZM5.625 4.5H12.375V3.375H10.125V2.25C10.125 2.0918 10.0957 1.94531 10.0371 1.81055C9.97852 1.67578 9.89941 1.55859 9.7998 1.45898C9.7002 1.35938 9.58008 1.27734 9.43945 1.21289C9.29883 1.14844 9.15234 1.11914 9 1.125C8.8418 1.125 8.69531 1.1543 8.56055 1.21289C8.42578 1.27148 8.30859 1.35059 8.20898 1.4502C8.10938 1.5498 8.02734 1.66992 7.96289 1.81055C7.89844 1.95117 7.86914 2.09766 7.875 2.25V3.375H5.625V4.5ZM9 13.5H7.875V14.625H9V13.5ZM9 6.75H7.875V12.375H9V6.75Z" fill="#33186B"/>
<g clip-path="url(#clip0_405_1357)">
<path d="M2.4873 0.791016H2.61035C2.61501 0.791016 2.61948 0.792868 2.62278 0.796164C2.62608 0.799461 2.62793 0.803932 2.62793 0.808594V0.931641C2.62793 0.936303 2.62608 0.940774 2.62278 0.94407C2.61948 0.947367 2.61501 0.949219 2.61035 0.949219H2.4873C2.48264 0.949219 2.47817 0.947367 2.47488 0.94407C2.47158 0.940774 2.46973 0.936303 2.46973 0.931641V0.808594C2.46973 0.803932 2.47158 0.799461 2.47488 0.796164C2.47817 0.792868 2.48264 0.791016 2.4873 0.791016ZM2.55762 0.878906V0.826172H2.54004V0.878906H2.55762ZM2.55762 0.914062V0.896484H2.54004V0.914062H2.55762Z" fill="#33186B"/>
</g>
<defs>
<clipPath id="clip0_405_1357">
<rect width="0.210938" height="0.210938" fill="white" transform="translate(2.44336 0.764648)"/>
</clipPath>
</defs>
</svg>
