<svg width="20" height="17" viewBox="0 0 20 17" fill="none" xmlns="http://www.w3.org/2000/svg">
<path d="M1 8.2C1 5.0167 1 3.4246 1.9477 2.3617C2.0995 2.1913 2.2657 2.0347 2.4463 1.8919C3.5758 1 5.2669 1 8.65 1H11.35C14.7331 1 16.4242 1 17.5528 1.891C17.734 2.035 17.9005 2.1919 18.0523 2.3617C19 3.4237 19 5.0167 19 8.2C19 11.3833 19 12.9754 18.0523 14.0383C17.8997 14.209 17.7326 14.3662 17.5528 14.5081C16.4242 15.4 14.734 15.4 11.35 15.4H8.65C5.2669 15.4 3.5758 15.4 2.4463 14.509C2.2668 14.3668 2.09998 14.2093 1.9477 14.0383C1 12.9763 1 11.3833 1 8.2Z" stroke="#33186B" stroke-width="1.5" stroke-linecap="round" stroke-linejoin="round"/>
<path d="M3.7002 8.2002H4.6002M15.4002 8.2002H16.3002M12.2961 8.2002C12.2961 8.79693 12.059 9.36923 11.6371 9.79119C11.2151 10.2131 10.6428 10.4502 10.0461 10.4502C9.44936 10.4502 8.87706 10.2131 8.4551 9.79119C8.03315 9.36923 7.7961 8.79693 7.7961 8.2002C7.7961 7.60346 8.03315 7.03116 8.4551 6.60921C8.87706 6.18725 9.44936 5.9502 10.0461 5.9502C10.6428 5.9502 11.2151 6.18725 11.6371 6.60921C12.059 7.03116 12.2961 7.60346 12.2961 8.2002Z" stroke="#33186B" stroke-width="1.5" stroke-linecap="round" stroke-linejoin="round"/>
</svg>
