<svg width="24" height="24" viewBox="0 0 24 24" fill="none" xmlns="http://www.w3.org/2000/svg">
<path opacity="0.5" fill-rule="evenodd" clip-rule="evenodd" d="M21.5001 14.3359C21.5001 17.299 19.07 19.7006 16.0718 19.7006H10.5741C9.70688 18.5452 9.21136 17.1536 9.15323 15.7101C9.0951 14.2667 9.4771 12.8397 10.2486 11.6184C11.02 10.397 12.1445 9.43901 13.473 8.87139C14.8014 8.30378 16.2709 8.15337 17.6868 8.44011C17.7618 8.70706 17.816 8.98257 17.8483 9.26472C19.9725 9.99148 21.5001 11.9875 21.5001 14.3359Z" fill="#33186B" fill-opacity="0.8"/>
<path d="M12.4523 4.5C9.45408 4.5 7.02395 6.90163 7.02395 9.86471C7.02395 10.5202 7.1427 11.1472 7.36026 11.7286C7.10046 11.6781 6.83641 11.6527 6.57175 11.6526C4.32307 11.6536 2.5 13.4548 2.5 15.6769C2.5 17.899 4.32307 19.7002 6.57175 19.7002H10.5751C9.70791 18.5448 9.21239 17.1532 9.15426 15.7097C9.09613 14.2663 9.47813 12.8393 10.2496 11.6179C11.0211 10.3966 12.1456 9.43859 13.474 8.87098C14.8024 8.30337 16.272 8.15296 17.6878 8.4397C17.6737 8.38943 17.6588 8.33939 17.6432 8.28959C16.963 6.09602 14.8957 4.5 12.4523 4.5Z" fill="#33186B" fill-opacity="0.8"/>
</svg>
