<svg width="1440" height="1042" viewBox="0 0 1440 1042" fill="none" xmlns="http://www.w3.org/2000/svg">
<g clip-path="url(#clip0_1_1384)">
<rect width="1440" height="1042" fill="#F5F5FA"/>
<path d="M1252.5 187.5C1519.64 318.844 1622 202.771 1670.95 132.703L912.603 -1016L-226.711 -263.853C-224.939 -240.999 -196.14 -169.137 -95.1125 -64.5148C31.1715 66.2628 280.175 205.399 456.968 137.612C868.673 -20.2471 910.413 19.3073 1252.5 187.5Z" fill="#E6F4FF"/>
<path fill-rule="evenodd" clip-rule="evenodd" d="M1428.15 229.379C1427.26 229.379 1426.4 229.511 1425.58 229.755C1424.1 223.588 1418.48 219 1411.78 219C1405.11 219 1399.52 223.531 1398 229.64C1397.31 229.471 1396.59 229.379 1395.85 229.379C1390.96 229.379 1387 233.288 1387 238.109C1387 242.93 1390.96 246.838 1395.85 246.838H1409.61C1410.32 246.945 1411.04 247 1411.78 247C1412.51 247 1413.24 246.945 1413.94 246.838H1428.15C1433.04 246.838 1437 242.93 1437 238.109C1437 233.288 1433.04 229.379 1428.15 229.379Z" fill="#C0E3FF"/>
<g filter="url(#filter0_d_1_1384)">
<path fill-rule="evenodd" clip-rule="evenodd" d="M865.737 27.2327C864.7 27.2327 863.699 27.3883 862.756 27.6751C861.035 20.4067 854.518 15 846.741 15C839.012 15 832.529 20.3404 830.759 27.5405C829.96 27.3403 829.125 27.2327 828.264 27.2327C822.595 27.2327 818 31.839 818 37.5208C818 43.203 822.595 47.8091 828.264 47.8091H844.231C845.049 47.9347 845.888 48 846.741 48C847.595 48 848.433 47.9347 849.251 47.8091H865.737C871.405 47.8091 876 43.203 876 37.5208C876 31.839 871.405 27.2327 865.737 27.2327Z" fill="#C0E3FF"/>
</g>
<path fill-rule="evenodd" clip-rule="evenodd" d="M331.807 144.414C331.181 144.414 330.577 144.508 330.008 144.682C328.969 140.277 325.037 137 320.344 137C315.68 137 311.767 140.237 310.7 144.6C310.217 144.479 309.713 144.414 309.194 144.414C305.773 144.414 303 147.205 303 150.649C303 154.093 305.773 156.884 309.194 156.884H318.829C319.323 156.96 319.829 157 320.344 157C320.859 157 321.365 156.96 321.859 156.884H331.807C335.227 156.884 338 154.093 338 150.649C338 147.205 335.227 144.414 331.807 144.414Z" fill="#C0E3FF"/>
</g>
<defs>
<filter id="filter0_d_1_1384" x="814" y="13" width="66" height="41" filterUnits="userSpaceOnUse" color-interpolation-filters="sRGB">
<feFlood flood-opacity="0" result="BackgroundImageFix"/>
<feColorMatrix in="SourceAlpha" type="matrix" values="0 0 0 0 0 0 0 0 0 0 0 0 0 0 0 0 0 0 127 0" result="hardAlpha"/>
<feOffset dy="2"/>
<feGaussianBlur stdDeviation="2"/>
<feComposite in2="hardAlpha" operator="out"/>
<feColorMatrix type="matrix" values="0 0 0 0 0 0 0 0 0 0 0 0 0 0 0 0 0 0 0.3 0"/>
<feBlend mode="normal" in2="BackgroundImageFix" result="effect1_dropShadow_1_1384"/>
<feBlend mode="normal" in="SourceGraphic" in2="effect1_dropShadow_1_1384" result="shape"/>
</filter>
<clipPath id="clip0_1_1384">
<rect width="1440" height="1042" fill="white"/>
</clipPath>
</defs>
</svg>
