<svg width="222" height="245" viewBox="0 0 222 245" fill="none" xmlns="http://www.w3.org/2000/svg">
<path fill-rule="evenodd" clip-rule="evenodd" d="M173.232 227.328L85.1131 227.299C80.5069 227.297 76.7389 223.541 76.7409 218.951L76.7602 161.998C76.7621 157.409 80.5322 153.656 85.139 153.658L173.258 153.689C177.865 153.689 181.632 157.446 181.631 162.035L181.61 218.988C181.609 223.577 177.839 227.33 173.232 227.328Z" fill="#6796B1"/>
<path fill-rule="evenodd" clip-rule="evenodd" d="M85.1387 153.658C85.1387 153.658 83.1048 157.744 88.0679 157.745C93.0303 157.746 170.167 157.774 170.167 157.774C170.167 157.774 174.274 158.318 174.276 153.753L85.1387 153.658Z" fill="#AED7E8"/>
<path fill-rule="evenodd" clip-rule="evenodd" d="M171.683 182.216L168.977 187.902C168.977 187.902 106.48 173.212 91.1556 175.003C78.2849 176.507 76.8785 171.05 76.7575 169.262L76.7409 218.951C76.7389 223.541 80.5069 227.297 85.1131 227.298L173.232 227.328C177.839 227.33 181.609 223.577 181.61 218.988L181.623 182.075C178.003 185.266 171.683 182.216 171.683 182.216Z" fill="#6E9EBA"/>
<path fill-rule="evenodd" clip-rule="evenodd" d="M173.232 227.328V226.39L85.1137 226.36C83.0705 226.359 81.2167 225.528 79.8661 224.182C78.5162 222.836 77.6827 220.99 77.6827 218.955H76.8784L77.6827 218.971V218.955H76.8784L77.6827 218.971V218.952L77.7026 161.999C77.7033 159.963 78.5374 158.117 79.8881 156.771C81.2393 155.426 83.0931 154.596 85.1363 154.596V154.03L85.1343 154.596H85.1363V154.03L85.1343 154.596L85.1376 153.693L85.1037 154.595L85.1343 154.596L85.1376 153.693L85.1037 154.595L85.1383 154.596L173.257 154.627C175.301 154.628 177.154 155.459 178.505 156.804C179.855 158.15 180.688 159.998 180.688 162.033H181.508L180.688 162.029V162.033H181.508L180.688 162.029L180.691 162.105L181.631 162.035H180.688L180.668 218.987C180.667 221.023 179.833 222.869 178.483 224.215C177.131 225.56 175.278 226.39 173.235 226.39V227.042L173.237 226.39H173.235V227.042L173.237 226.39L173.182 226.391L173.232 227.328V226.39V227.328L173.281 228.266L173.234 227.365L173.238 228.267L173.281 228.266L173.234 227.365L173.238 228.267L173.234 227.447L173.231 228.267H173.238L173.234 227.447L173.231 228.267H173.235C178.364 228.263 182.547 224.098 182.552 218.988L182.572 162.036L182.57 161.966L181.648 162.034L182.572 162.028L182.57 161.966L181.648 162.034L182.572 162.028L181.684 162.034L182.572 162.038V162.028L181.684 162.034L182.572 162.038V162.033C182.569 156.923 178.388 152.755 173.258 152.75L85.139 152.719V153.658L85.1742 152.719H85.1403H85.135L85.1363 153.411V152.719H85.135L85.1363 153.411V152.719C80.0064 152.723 75.8236 156.888 75.8183 161.998L75.7983 218.951H76.7408L75.7983 218.932V218.955C75.8023 224.065 79.9831 228.231 85.113 228.237L173.231 228.267L173.281 228.266L173.232 227.328Z" fill="#22215B"/>
<path fill-rule="evenodd" clip-rule="evenodd" d="M166.561 220.376L91.789 220.351C87.9738 220.349 84.8552 217.239 84.8552 213.439L84.8718 167.517C84.8731 163.716 87.9951 160.609 91.8096 160.61L166.582 160.636C170.396 160.637 173.517 163.748 173.516 167.548L173.499 213.469C173.498 217.269 170.376 220.378 166.561 220.376Z" fill="#FFFFFE"/>
<path fill-rule="evenodd" clip-rule="evenodd" d="M91.789 220.35L166.561 220.376C170.376 220.378 173.498 217.269 173.499 213.469L173.508 189.892L168.977 184.214C167.008 181.746 163.246 181.745 161.276 184.211L144.536 205.163L138.917 198.12C136.836 195.513 132.861 195.511 130.779 198.117L124.778 205.627L106.753 183.034C104.687 180.443 100.734 180.455 98.683 183.058L84.8598 200.603L84.8552 213.439C84.8552 217.239 87.9738 220.349 91.789 220.35Z" fill="#FFFFFE"/>
<path fill-rule="evenodd" clip-rule="evenodd" d="M124.778 205.627L106.752 183.034C104.687 180.443 100.734 180.455 98.6825 183.058L97.4642 184.604L123.453 213.518C123.453 213.518 126.353 211.592 124.778 205.627Z" fill="#CBE5E9"/>
<path fill-rule="evenodd" clip-rule="evenodd" d="M143.613 215.431C143.613 215.431 148.386 212.057 144.536 205.163L138.917 198.12C136.836 195.513 132.861 195.511 130.778 198.117L129.769 199.38L143.613 215.431Z" fill="#CBE5E9"/>
<path fill-rule="evenodd" clip-rule="evenodd" d="M168.977 184.213C167.008 181.746 163.246 181.745 161.276 184.211L160.758 184.858L173.503 201.554L173.507 189.892L168.977 184.213Z" fill="#CBE5E9"/>
<path fill-rule="evenodd" clip-rule="evenodd" d="M91.789 220.35L91.7883 221.289L166.56 221.315H166.574L166.563 220.467V221.315H166.574L166.563 220.467V221.315C170.901 221.311 174.436 217.791 174.441 213.469L174.449 189.892C174.449 189.679 174.378 189.474 174.245 189.307L169.714 183.629C168.546 182.163 166.828 181.421 165.125 181.424C163.425 181.421 161.708 182.161 160.539 183.627L144.537 203.655L139.654 197.536C138.43 195.999 136.63 195.223 134.846 195.225C133.065 195.223 131.266 195.997 130.041 197.533L124.779 204.119L107.491 182.449C106.277 180.926 104.494 180.157 102.728 180.16C100.95 180.157 99.1549 180.937 97.9419 182.479L84.1187 200.023C83.9898 200.187 83.918 200.393 83.918 200.603L83.9133 213.438V213.433V213.441C83.9173 217.763 87.45 221.284 91.7883 221.289L91.789 220.35V219.412C90.142 219.411 88.6484 218.742 87.5584 217.657C86.4696 216.57 85.7977 215.082 85.7977 213.441H85.2201L85.7977 213.445V213.441H85.2201L85.7977 213.445V213.439L85.8023 200.927L99.4241 183.637C100.269 182.567 101.49 182.039 102.728 182.037C103.957 182.039 105.17 182.559 106.016 183.617L124.041 206.21C124.219 206.434 124.492 206.565 124.778 206.565C125.064 206.565 125.337 206.434 125.515 206.211L131.516 198.702C132.372 197.631 133.601 197.104 134.846 197.102C136.093 197.104 137.322 197.632 138.18 198.704L143.799 205.747C143.976 205.97 144.249 206.101 144.536 206.101C144.822 206.101 145.095 205.97 145.273 205.747L162.013 184.795C162.813 183.795 163.961 183.303 165.125 183.3C166.291 183.303 167.439 183.796 168.239 184.797L172.565 190.219L172.557 213.468C172.556 215.11 171.884 216.598 170.795 217.684C169.704 218.768 168.21 219.438 166.563 219.438H166.55L166.561 220.286V219.438H166.55L166.561 220.286V219.438L91.789 219.412V220.35Z" fill="#3F234F"/>
<path fill-rule="evenodd" clip-rule="evenodd" d="M166.561 220.376V219.438L91.789 219.412C90.142 219.412 88.6484 218.742 87.5584 217.657C86.4696 216.57 85.7977 215.082 85.7977 213.441H85.6182L85.7977 213.442V213.441H85.6182L85.7977 213.442L84.9176 213.44L85.7977 213.458V213.442L84.9176 213.44L85.7977 213.458V213.439L85.8136 167.517C85.8143 165.876 86.4869 164.389 87.5757 163.303C88.6664 162.218 90.1599 161.549 91.807 161.549V160.981L91.8056 161.549H91.807V160.981L91.8056 161.549L91.8083 160.645L91.7744 161.548L91.8056 161.549L91.8083 160.645L91.7744 161.548L91.809 161.549L166.581 161.574C168.229 161.575 169.722 162.244 170.812 163.33C171.901 164.416 172.573 165.904 172.573 167.546H173.393L172.573 167.542V167.546H173.393L172.573 167.542L172.576 167.617L173.516 167.548H172.573L172.557 213.469C172.556 215.11 171.884 216.598 170.795 217.684C169.704 218.769 168.21 219.438 166.563 219.438V220.251L166.567 219.438H166.563V220.251L166.567 219.438L166.487 219.441L166.561 220.376V219.438V220.376L166.635 221.312L166.562 220.392L166.568 221.315L166.635 221.312L166.562 220.392L166.568 221.315L166.562 220.43L166.558 221.315H166.568L166.562 220.43L166.558 221.315H166.563C170.901 221.311 174.436 217.791 174.441 213.469L174.457 167.548L174.455 167.478L173.534 167.546L174.457 167.54L174.455 167.478L173.534 167.546L174.457 167.54L173.569 167.546L174.457 167.55V167.54L173.569 167.546L174.457 167.55V167.546C174.454 163.224 170.92 159.702 166.582 159.697L91.8096 159.671V160.61L91.8448 159.672L91.8116 159.671H91.8056L91.807 160.367V159.671H91.8056L91.807 160.367V159.671C87.47 159.675 83.9346 163.195 83.9299 167.517L83.9133 213.438L84.8552 213.439L83.9133 213.42V213.441C83.9173 217.763 87.45 221.284 91.7883 221.289L166.56 221.315L166.635 221.312L166.561 220.376Z" fill="#3F234F"/>
<path fill-rule="evenodd" clip-rule="evenodd" d="M155.308 178.244C155.306 182.336 151.976 185.652 147.869 185.65C143.761 185.649 140.432 182.331 140.434 178.239C140.435 174.147 143.766 170.831 147.874 170.832C151.981 170.833 155.31 174.152 155.308 178.244Z" fill="#99D3D1"/>
<path fill-rule="evenodd" clip-rule="evenodd" d="M147.869 183.387C144.149 183.386 141.076 180.661 140.53 177.107C140.473 177.477 140.434 177.853 140.434 178.239C140.432 182.33 143.761 185.649 147.869 185.65C151.976 185.652 155.306 182.336 155.308 178.244C155.308 177.858 155.27 177.482 155.213 177.113C154.663 180.666 151.589 183.389 147.869 183.387Z" fill="#46A09A"/>
<path fill-rule="evenodd" clip-rule="evenodd" d="M155.307 178.244L154.366 178.244C154.365 181.816 151.457 184.712 147.872 184.712H147.87L147.836 184.712L147.868 185.65V184.712C144.283 184.711 141.375 181.813 141.376 178.241H140.817L141.376 178.243V178.241H140.817L141.376 178.243L140.466 178.24L141.375 178.276L141.376 178.243L140.466 178.24L141.375 178.276L141.376 178.239C141.376 174.667 144.285 171.77 147.871 171.77H147.872V170.858L147.828 171.77L147.872 171.77V170.858L147.828 171.77L147.873 171.771C151.459 171.771 154.366 174.669 154.366 178.24V178.267L155.307 178.244L154.366 178.244L155.307 178.244L156.249 178.221L155.39 178.242L156.249 178.24V178.221L155.39 178.242L156.249 178.24H156.167H156.249H156.167H156.249C156.249 173.632 152.501 169.896 147.874 169.894V170.832L147.919 169.895L147.872 169.894H147.871C143.244 169.894 139.494 173.629 139.492 178.238L140.433 178.239L139.492 178.202L139.492 178.237V178.243L140.172 178.241H139.492V178.243L140.172 178.241H139.492C139.492 182.851 143.241 186.586 147.868 186.588H147.901L147.87 185.702V186.588H147.901L147.87 185.702V186.588H147.872C152.499 186.588 156.247 182.854 156.249 178.244V178.221L155.307 178.244Z" fill="#3F234F"/>
<path fill-rule="evenodd" clip-rule="evenodd" d="M168.002 227.328L79.8828 227.299C75.276 227.297 71.508 223.541 71.51 218.951L71.5299 161.998C71.5313 157.409 75.3013 153.656 79.9081 153.658L168.027 153.689C172.634 153.689 176.402 157.446 176.4 162.035L176.38 218.988C176.378 223.577 172.608 227.33 168.002 227.328Z" fill="#6796B1"/>
<path fill-rule="evenodd" clip-rule="evenodd" d="M79.908 153.658C79.908 153.658 77.8748 157.744 82.8372 157.745C87.7996 157.746 164.937 157.774 164.937 157.774C164.937 157.774 169.044 158.318 169.045 153.753L79.908 153.658Z" fill="#AED7E8"/>
<path fill-rule="evenodd" clip-rule="evenodd" d="M166.453 182.216L163.746 187.902C163.746 187.902 101.25 173.212 85.9247 175.003C73.054 176.507 71.6476 171.05 71.5273 169.262L71.51 218.951C71.508 223.541 75.276 227.297 79.8828 227.298L168.002 227.328C172.608 227.33 176.378 223.577 176.38 218.988L176.393 182.075C172.773 185.266 166.453 182.216 166.453 182.216Z" fill="#6E9EBA"/>
<path fill-rule="evenodd" clip-rule="evenodd" d="M168.002 227.328V226.39L79.8828 226.36C77.8396 226.359 75.9865 225.528 74.6353 224.182C73.2853 222.836 72.4525 220.99 72.4518 218.955V218.954L71.6117 218.953L72.4518 218.966V218.954L71.6117 218.953L72.4518 218.966V218.952L72.4718 161.999C72.4724 159.963 73.3073 158.117 74.6572 156.771C76.0091 155.426 77.8629 154.596 79.9061 154.596V154.026L79.9041 154.596H79.9061V154.026L79.9041 154.596L79.9068 153.693L79.8729 154.595L79.9041 154.596L79.9068 153.693L79.8729 154.595L79.9081 154.596L168.026 154.627C170.069 154.628 171.922 155.459 173.274 156.803C174.624 158.15 175.457 159.996 175.457 162.032H176.126L175.457 162.029V162.032H176.126L175.457 162.029L175.459 162.082L176.4 162.035H175.457L175.438 218.987C175.437 221.023 174.602 222.869 173.252 224.215C171.901 225.56 170.048 226.39 168.005 226.39V227.047L168.007 226.39H168.005V227.047L168.007 226.39L167.952 226.391L168.002 227.328V226.39V227.328L168.051 228.266L168.004 227.365L168.008 228.267L168.051 228.266L168.004 227.365L168.008 228.267L168.004 227.448L168.001 228.267H168.008L168.004 227.448L168.001 228.267H168.005C173.134 228.263 177.316 224.098 177.322 218.988L177.341 162.035L177.34 161.988L176.439 162.033L177.341 162.029L177.34 161.988L176.439 162.033L177.341 162.029L176.519 162.033L177.341 162.035V162.029L176.519 162.033L177.341 162.035V162.032C177.338 156.922 173.157 152.755 168.027 152.75L79.9088 152.719L79.9081 153.658L79.9433 152.719H79.9101H79.9041L79.9061 153.414V152.719H79.9041L79.9061 153.414V152.719C74.7762 152.723 70.5927 156.888 70.5874 161.998L70.5681 218.951H71.51L70.5681 218.937V218.955C70.5715 224.065 74.7522 228.231 79.8822 228.237L168.001 228.267L168.051 228.266L168.002 227.328Z" fill="#22215B"/>
<path fill-rule="evenodd" clip-rule="evenodd" d="M161.331 220.376L86.5582 220.351C82.7436 220.349 79.6236 217.239 79.625 213.439L79.6409 167.517C79.6423 163.716 82.7649 160.609 86.5788 160.61L161.352 160.636C165.166 160.637 168.285 163.748 168.285 167.548L168.268 213.469C168.267 217.269 165.145 220.378 161.331 220.376Z" fill="#FFFFFE"/>
<path fill-rule="evenodd" clip-rule="evenodd" d="M86.5582 220.35L161.331 220.376C165.145 220.378 168.267 217.269 168.268 213.469L168.277 189.892L163.746 184.214C161.778 181.746 158.016 181.745 156.045 184.211L139.305 205.163L133.686 198.12C131.606 195.513 127.631 195.511 125.548 198.117L119.548 205.627L101.523 183.034C99.4561 180.443 95.5033 180.455 93.4528 183.058L79.6296 200.603L79.625 213.439C79.6236 217.239 82.7436 220.349 86.5582 220.35Z" fill="#FFFFFE"/>
<path fill-rule="evenodd" clip-rule="evenodd" d="M119.547 205.627L101.522 183.034C99.4557 180.443 95.5029 180.455 93.4524 183.058L92.234 184.604L118.223 213.518C118.223 213.518 121.122 211.592 119.547 205.627Z" fill="#CBE5E9"/>
<path fill-rule="evenodd" clip-rule="evenodd" d="M138.383 215.431C138.383 215.431 143.156 212.057 139.305 205.163L133.686 198.12C131.605 195.513 127.631 195.511 125.548 198.117L124.539 199.38L138.383 215.431Z" fill="#CBE5E9"/>
<path fill-rule="evenodd" clip-rule="evenodd" d="M163.746 184.213C161.778 181.746 158.015 181.745 156.045 184.211L155.528 184.858L168.273 201.554L168.277 189.892L163.746 184.213Z" fill="#CBE5E9"/>
<path fill-rule="evenodd" clip-rule="evenodd" d="M86.5581 220.35V221.289L161.33 221.315H161.344L161.333 220.467V221.315H161.344L161.333 220.467V221.315C165.671 221.311 169.205 217.791 169.21 213.469L169.219 189.892C169.219 189.679 169.147 189.474 169.014 189.308L164.484 183.629C163.315 182.163 161.597 181.421 159.895 181.424C158.194 181.421 156.477 182.161 155.308 183.627L139.306 203.655L134.423 197.536C133.199 195.999 131.399 195.223 129.616 195.225C127.835 195.223 126.036 195.997 124.811 197.533L119.548 204.119L102.26 182.449C101.047 180.926 99.2633 180.157 97.4973 180.16C95.7193 180.157 93.9247 180.937 92.7116 182.479L78.8885 200.023C78.7589 200.187 78.6878 200.393 78.6871 200.603L78.6831 213.438V213.433V213.441C78.6864 217.763 82.2198 221.284 86.5581 221.289V220.35L86.5588 219.412C84.9111 219.411 83.4182 218.742 82.3275 217.657C81.2388 216.57 80.5674 215.081 80.5668 213.441H79.9899L80.5668 213.445V213.441H79.9899L80.5668 213.445V213.439L80.5714 200.927L94.1939 183.637C95.0387 182.567 96.2597 182.039 97.4973 182.037C98.7269 182.039 99.9393 182.559 100.785 183.617L118.811 206.21C118.988 206.434 119.261 206.565 119.548 206.565C119.834 206.565 120.107 206.434 120.285 206.211L126.285 198.702C127.142 197.631 128.371 197.104 129.616 197.102C130.862 197.104 132.092 197.632 132.948 198.704L138.567 205.747C138.745 205.97 139.019 206.101 139.304 206.101C139.591 206.101 139.864 205.97 140.042 205.747L156.782 184.795C157.583 183.795 158.731 183.303 159.895 183.3C161.06 183.303 162.209 183.796 163.009 184.797L167.334 190.219L167.326 213.468C167.326 215.11 166.653 216.598 165.564 217.684C164.473 218.768 162.98 219.438 161.333 219.438H161.32L161.331 220.285V219.438H161.32L161.331 220.285V219.438L86.5588 219.412L86.5581 220.35Z" fill="#3F234F"/>
<path fill-rule="evenodd" clip-rule="evenodd" d="M161.331 220.376V219.438L86.5588 219.412C84.9111 219.412 83.4182 218.742 82.3275 217.657C81.2388 216.57 80.5674 215.082 80.5668 213.441H79.9978L80.5668 213.443V213.441H79.9978L80.5668 213.443L79.6755 213.44L80.5668 213.463V213.443L79.6755 213.44L80.5668 213.463V213.439L80.5834 167.517C80.5841 165.876 81.256 164.389 82.3454 163.303C83.4362 162.218 84.9297 161.549 86.5767 161.549V160.983L86.5747 161.549H86.5767V160.983L86.5747 161.549L86.5774 160.646L86.5442 161.548L86.5747 161.549L86.5774 160.646L86.5442 161.548L86.5787 161.549L161.351 161.574C162.999 161.575 164.491 162.244 165.582 163.33C166.671 164.416 167.342 165.904 167.342 167.546H167.916L167.342 167.544V167.546H167.916L167.342 167.544L167.344 167.594L168.285 167.548H167.342L167.326 213.469C167.326 215.11 166.653 216.598 165.564 217.684C164.473 218.769 162.98 219.438 161.333 219.438V220.248L161.337 219.438H161.333V220.248L161.337 219.438L161.256 219.441L161.331 220.376V219.438V220.376L161.405 221.312L161.332 220.392L161.338 221.315L161.405 221.312L161.332 220.392L161.338 221.315L161.332 220.43L161.328 221.315H161.338L161.332 220.43L161.328 221.315H161.333C165.671 221.311 169.205 217.791 169.21 213.469L169.227 167.548L169.225 167.501L168.313 167.546L169.227 167.54L169.225 167.501L168.313 167.546L169.227 167.54L168.36 167.546L169.227 167.548V167.54L168.36 167.546L169.227 167.548V167.546C169.223 163.224 165.69 159.702 161.352 159.697L86.5794 159.671L86.5787 160.61L86.614 159.672L86.5807 159.671H86.5747L86.5767 160.367V159.671H86.5747L86.5767 160.367V159.671C82.2391 159.675 78.7044 163.195 78.6991 167.517L78.6831 213.438L79.6249 213.439L78.6831 213.414V213.441C78.6864 217.763 82.2198 221.284 86.5581 221.289L161.33 221.315L161.405 221.312L161.331 220.376Z" fill="#3F234F"/>
<path fill-rule="evenodd" clip-rule="evenodd" d="M150.077 178.244C150.076 182.336 146.745 185.652 142.638 185.65C138.53 185.649 135.202 182.331 135.203 178.239C135.205 174.147 138.535 170.831 142.642 170.832C146.75 170.833 150.079 174.152 150.077 178.244Z" fill="#99D3D1"/>
<path fill-rule="evenodd" clip-rule="evenodd" d="M142.639 183.387C138.918 183.386 135.846 180.661 135.3 177.107C135.243 177.477 135.203 177.853 135.203 178.239C135.202 182.33 138.531 185.649 142.638 185.65C146.745 185.652 150.076 182.336 150.077 178.244C150.077 177.858 150.039 177.482 149.982 177.113C149.433 180.666 146.358 183.389 142.639 183.387Z" fill="#46A09A"/>
<path fill-rule="evenodd" clip-rule="evenodd" d="M150.077 178.244L149.135 178.244C149.135 181.816 146.226 184.712 142.641 184.712H142.639L142.605 184.712L142.638 185.65V184.712C139.052 184.711 136.145 181.813 136.145 178.241V178.24H135.248L136.145 178.264V178.24H135.248L136.145 178.264V178.239C136.146 174.667 139.054 171.77 142.64 171.77H142.642V170.858L142.597 171.77L142.642 171.77V170.858L142.597 171.77L142.642 171.771C146.228 171.771 149.136 174.669 149.135 178.242V178.266L150.077 178.244L149.135 178.244L150.077 178.244L151.019 178.222L150.131 178.243H151.019V178.222L150.131 178.243H151.019V178.242C151.018 173.632 147.27 169.896 142.643 169.894L142.642 170.832L142.688 169.895L142.642 169.894H142.64C138.013 169.894 134.263 173.629 134.261 178.238L135.203 178.239L134.261 178.214V178.241C134.262 182.85 138.01 186.586 142.637 186.588H142.67L142.639 185.702V186.588H142.67L142.639 185.702V186.588H142.641C147.267 186.588 151.017 182.854 151.019 178.244V178.222L150.077 178.244Z" fill="#3F234F"/>
<path fill-rule="evenodd" clip-rule="evenodd" d="M211.344 193.228L191.411 173.371C190.461 172.425 188.921 172.425 187.972 173.371L168.038 193.228C166.506 194.755 167.592 197.365 169.757 197.365H172.089C173.433 197.365 174.522 198.449 174.522 199.787V224.097C174.522 225.435 175.61 226.519 176.954 226.519H202.428C203.771 226.519 204.86 225.435 204.86 224.097V199.787C204.86 198.449 205.949 197.365 207.292 197.365H209.624C211.791 197.365 212.875 194.755 211.344 193.228Z" fill="#F35656"/>
<path fill-rule="evenodd" clip-rule="evenodd" d="M204.861 224.097V199.787C204.861 198.449 205.949 197.365 207.292 197.365H209.624C211.791 197.365 212.875 194.754 211.344 193.228L208.598 190.493C208.72 192.655 208.288 194.61 206.315 194.61C201.9 194.61 202.404 200.005 202.404 206.028C202.404 210.596 202.393 221.512 202.389 226.519H202.429C203.771 226.519 204.861 225.434 204.861 224.097Z" fill="#AB4040"/>
<path fill-rule="evenodd" clip-rule="evenodd" d="M177.766 190.763C180.841 187.947 189.14 180.073 193.744 175.696L191.411 173.371C190.461 172.425 188.921 172.425 187.972 173.371L168.038 193.228C166.506 194.755 167.592 197.365 169.757 197.365H172.09C173.433 197.365 174.522 198.449 174.522 199.787V224.097C174.522 225.435 175.61 226.519 176.954 226.519H180.47V197.322C180.47 197.322 173.415 194.745 177.766 190.763Z" fill="#F26A6A"/>
<path fill-rule="evenodd" clip-rule="evenodd" d="M211.344 193.228L212.01 192.565L192.077 172.707C191.42 172.053 190.552 171.722 189.691 171.723C188.831 171.722 187.962 172.053 187.305 172.707L167.372 192.565C166.698 193.232 166.375 194.098 166.379 194.924C166.381 195.789 166.711 196.62 167.301 197.252C167.888 197.884 168.764 198.306 169.757 198.303H172.09C172.912 198.304 173.578 198.968 173.58 199.787V224.097C173.58 225.953 175.09 227.457 176.954 227.457H202.429C204.292 227.457 205.802 225.954 205.802 224.097V199.787C205.804 198.967 206.47 198.304 207.292 198.303H209.624C210.618 198.306 211.494 197.884 212.081 197.252C212.67 196.62 213.001 195.79 213.003 194.924C213.007 194.098 212.683 193.232 212.01 192.565L211.344 193.228L210.678 193.892C210.995 194.213 211.115 194.559 211.118 194.924C211.12 195.304 210.966 195.693 210.704 195.971C210.438 196.248 210.096 196.423 209.624 196.426H207.292C205.428 196.426 203.919 197.93 203.919 199.787V224.097C203.917 224.915 203.251 225.579 202.429 225.581H176.954C176.131 225.579 175.466 224.916 175.464 224.097V199.787C175.464 197.93 173.953 196.426 172.09 196.426H169.757C169.285 196.423 168.944 196.248 168.679 195.971C168.417 195.693 168.262 195.303 168.263 194.924C168.267 194.559 168.387 194.213 168.704 193.892L188.638 174.034C188.931 173.743 189.307 173.601 189.691 173.6C190.076 173.601 190.451 173.743 190.744 174.034L210.678 193.892L211.344 193.228Z" fill="#22215B"/>
<path fill-rule="evenodd" clip-rule="evenodd" d="M161.983 227.328L73.8647 227.299C69.2579 227.297 65.4906 223.541 65.4919 218.951L65.5118 161.998C65.5132 157.409 69.2838 153.656 73.89 153.658L162.009 153.689C166.616 153.689 170.384 157.446 170.382 162.035L170.362 218.988C170.36 223.577 166.59 227.33 161.983 227.328Z" fill="#8CB7D7"/>
<path fill-rule="evenodd" clip-rule="evenodd" d="M73.8899 153.658C73.8899 153.658 71.8566 157.744 76.8191 157.745C81.7822 157.746 158.919 157.774 158.919 157.774C158.919 157.774 163.026 158.318 163.027 153.753L73.8899 153.658Z" fill="#AED7E8"/>
<path fill-rule="evenodd" clip-rule="evenodd" d="M160.435 182.216L157.728 187.902C157.728 187.902 95.2319 173.212 79.9066 175.003C67.0359 176.507 65.6301 171.05 65.5092 169.262L65.4919 218.951C65.4906 223.541 69.2579 227.297 73.8647 227.298L161.983 227.328C166.59 227.33 170.36 223.577 170.362 218.988L170.374 182.075C166.755 185.266 160.435 182.216 160.435 182.216Z" fill="#6E9EBA"/>
<path fill-rule="evenodd" clip-rule="evenodd" d="M161.983 227.328L161.984 226.39L73.8647 226.36C71.8222 226.359 69.9684 225.528 68.6172 224.182C67.2679 222.836 66.4344 220.99 66.4344 218.955V218.954L65.5942 218.953L66.4337 218.966L66.4344 218.954L65.5942 218.953L66.4337 218.966L66.4344 218.952L66.4537 161.999C66.455 159.963 67.2892 158.117 68.6391 156.771C69.991 155.426 71.8448 154.596 73.888 154.596V154.026L73.886 154.596H73.888V154.026L73.886 154.596L73.8887 153.692L73.8548 154.595L73.886 154.596L73.8887 153.692L73.8548 154.595L73.89 154.596L162.009 154.627C164.051 154.628 165.905 155.459 167.256 156.803C168.606 158.15 169.439 159.996 169.439 162.032V162.037L169.44 162.066L170.382 162.035H169.439L169.42 218.987C169.419 221.023 168.585 222.869 167.234 224.215C165.883 225.56 164.03 226.39 161.987 226.39V227.047L161.989 226.39H161.987V227.047L161.989 226.39L161.934 226.391L161.983 227.328L161.984 226.39L161.983 227.328L162.033 228.266L161.985 227.365L161.989 228.267L162.033 228.266L161.985 227.365L161.989 228.267L161.985 227.449L161.983 228.267H161.989L161.985 227.449L161.983 228.267H161.987C167.117 228.263 171.298 224.098 171.304 218.988L171.323 162.035V162.004L170.444 162.033L171.323 162.029V162.004L170.444 162.033L171.323 162.029L170.549 162.033L171.323 162.033V162.029L170.549 162.033L171.323 162.033V162.032C171.32 156.922 167.139 152.755 162.009 152.75L73.8907 152.719L73.89 153.658L73.9259 152.719H73.892H73.886L73.888 153.414V152.719H73.886L73.888 153.414V152.719C68.7581 152.723 64.5753 156.888 64.57 161.998L64.55 218.951H65.4919L64.55 218.937V218.955C64.5534 224.065 68.7342 228.231 73.8641 228.237L161.983 228.267L162.033 228.266L161.983 227.328Z" fill="#22215B"/>
<path fill-rule="evenodd" clip-rule="evenodd" d="M155.313 220.376L80.54 220.351C76.7255 220.349 73.6055 217.239 73.6068 213.439L73.6235 167.517C73.6248 163.716 76.7467 160.609 80.5613 160.61L155.333 160.636C159.147 160.637 162.268 163.748 162.267 167.548L162.25 213.469C162.249 217.269 159.127 220.378 155.313 220.376Z" fill="#FFFFFE"/>
<path fill-rule="evenodd" clip-rule="evenodd" d="M80.54 220.35L155.313 220.376C159.127 220.378 162.249 217.269 162.25 213.469L162.259 189.892L157.729 184.214C155.759 181.746 151.998 181.745 150.027 184.211L133.287 205.163L127.668 198.12C125.587 195.513 121.613 195.511 119.53 198.117L113.53 205.627L95.5044 183.034C93.438 180.443 89.4852 180.455 87.434 183.058L73.6115 200.603L73.6068 213.439C73.6055 217.239 76.7255 220.349 80.54 220.35Z" fill="#FFFFFE"/>
<path fill-rule="evenodd" clip-rule="evenodd" d="M113.53 205.627L95.5046 183.034C93.4381 180.443 89.4853 180.455 87.4342 183.058L86.2158 184.604L112.206 213.518C112.206 213.518 115.105 211.592 113.53 205.627Z" fill="#CBE5E9"/>
<path fill-rule="evenodd" clip-rule="evenodd" d="M132.365 215.431C132.365 215.431 137.138 212.057 133.287 205.163L127.668 198.12C125.587 195.513 121.613 195.511 119.529 198.117L118.52 199.38L132.365 215.431Z" fill="#CBE5E9"/>
<path fill-rule="evenodd" clip-rule="evenodd" d="M157.729 184.213C155.759 181.746 151.998 181.745 150.027 184.211L149.51 184.858L162.254 201.554L162.258 189.892L157.729 184.213Z" fill="#CBE5E9"/>
<path fill-rule="evenodd" clip-rule="evenodd" d="M80.54 220.35V221.289L155.312 221.315H155.326L155.315 220.467V221.315H155.326L155.315 220.467V221.315C159.652 221.311 163.187 217.791 163.192 213.469L163.2 189.892C163.2 189.679 163.129 189.474 162.996 189.308L158.466 183.629C157.297 182.163 155.579 181.421 153.877 181.424C152.176 181.421 150.459 182.161 149.29 183.627L133.288 203.655L128.406 197.536C127.181 195.999 125.381 195.223 123.598 195.225C121.817 195.223 120.018 195.997 118.792 197.533L113.53 204.119L96.2422 182.449C95.0285 180.926 93.2452 180.157 91.4792 180.16C89.7012 180.157 87.9066 180.937 86.6929 182.479L72.8704 200.023C72.7408 200.187 72.6697 200.393 72.6697 200.603L72.665 213.438V213.433V213.441C72.6683 217.763 76.2017 221.284 80.54 221.289V220.35L80.5407 219.412C78.893 219.411 77.4001 218.742 76.3094 217.657C75.2207 216.57 74.5494 215.082 74.5487 213.441H73.9718L74.5487 213.445V213.441H73.9718L74.5487 213.445L74.5494 213.439L74.5533 200.927L88.1751 183.637C89.0199 182.567 90.2416 182.039 91.4792 182.037C92.7088 182.039 93.9218 182.559 94.7673 183.617L112.793 206.21C112.971 206.434 113.244 206.565 113.53 206.565C113.815 206.565 114.089 206.434 114.267 206.211L120.267 198.702C121.123 197.631 122.352 197.104 123.598 197.102C124.844 197.104 126.074 197.632 126.931 198.704L132.55 205.747C132.728 205.97 133 206.101 133.287 206.101C133.573 206.101 133.846 205.97 134.024 205.747L150.764 184.795C151.565 183.795 152.713 183.303 153.877 183.3C155.042 183.303 156.19 183.796 156.991 184.797L161.317 190.219L161.308 213.468C161.307 215.11 160.636 216.598 159.546 217.684C158.455 218.768 156.962 219.438 155.315 219.438H155.302L155.313 220.286V219.438H155.302L155.313 220.286V219.438L80.5407 219.412L80.54 220.35Z" fill="#22215B"/>
<path fill-rule="evenodd" clip-rule="evenodd" d="M155.313 220.376V219.438L80.5407 219.412C78.893 219.412 77.4001 218.742 76.3094 217.657C75.2207 216.57 74.5494 215.082 74.5487 213.441V213.44H73.6886L74.5487 213.451V213.44H73.6886L74.5487 213.451L74.5494 213.439L74.5653 167.517C74.566 165.876 75.238 164.389 76.3273 163.303C77.4181 162.218 78.9116 161.549 80.5586 161.549V160.981L80.5566 161.549H80.5586V160.981L80.5566 161.549L80.56 160.645L80.5261 161.548L80.5566 161.549L80.56 160.645L80.5261 161.548L80.5606 161.549L155.333 161.574C156.98 161.575 158.473 162.244 159.564 163.33C160.653 164.416 161.324 165.904 161.325 167.546V167.571L162.267 167.548H161.325L161.308 213.469C161.307 215.11 160.636 216.598 159.546 217.684C158.455 218.769 156.962 219.438 155.315 219.438V220.251L155.319 219.438H155.315V220.251L155.319 219.438L155.238 219.441L155.313 220.376V219.438V220.376L155.387 221.312L155.314 220.393L155.32 221.315L155.387 221.312L155.314 220.393L155.32 221.315L155.314 220.43L155.31 221.315H155.32L155.314 220.43L155.31 221.315H155.315C159.652 221.311 163.187 217.791 163.192 213.469L163.208 167.548V167.525L162.316 167.546H163.208V167.525L162.316 167.546H163.208V167.546C163.205 163.224 159.672 159.702 155.334 159.697L80.5613 159.671V160.61L80.5965 159.672L80.5626 159.671H80.5566L80.5586 160.363V159.671H80.5566L80.5586 160.363V159.671C76.221 159.675 72.6863 163.195 72.681 167.517L72.665 213.438L73.6069 213.439L72.665 213.426V213.441C72.6683 217.763 76.2017 221.284 80.54 221.289L155.312 221.315L155.387 221.312L155.313 220.376Z" fill="#22215B"/>
<path fill-rule="evenodd" clip-rule="evenodd" d="M144.059 178.244C144.058 182.336 140.727 185.652 136.62 185.65C132.512 185.649 129.183 182.331 129.185 178.239C129.187 174.147 132.517 170.831 136.625 170.832C140.732 170.833 144.061 174.152 144.059 178.244Z" fill="#99D3D1"/>
<path fill-rule="evenodd" clip-rule="evenodd" d="M136.62 183.387C132.9 183.386 129.828 180.661 129.282 177.107C129.224 177.477 129.185 177.853 129.185 178.239C129.183 182.33 132.512 185.649 136.62 185.65C140.727 185.652 144.058 182.336 144.059 178.244C144.059 177.858 144.021 177.482 143.964 177.113C143.415 180.666 140.341 183.389 136.62 183.387Z" fill="#46A09A"/>
<path fill-rule="evenodd" clip-rule="evenodd" d="M144.059 178.244L143.117 178.244C143.117 181.816 140.208 184.712 136.623 184.712H136.622L136.587 184.712L136.62 185.65V184.712C133.034 184.711 130.127 181.814 130.128 178.242V178.24H129.282L130.127 178.256L130.128 178.24H129.282L130.127 178.256L130.128 178.239C130.128 174.667 133.036 171.77 136.622 171.77H136.624V170.858L136.579 171.77L136.624 171.77V170.858L136.579 171.77L136.624 171.771C140.211 171.771 143.118 174.669 143.117 178.242V178.266L144.059 178.244L143.117 178.244L144.059 178.244L145.001 178.222L144.114 178.243H145.002L145.001 178.222L144.114 178.243H145.002V178.242C145.001 173.632 141.252 169.896 136.625 169.894V170.832L136.67 169.895L136.624 169.894H136.622C131.995 169.894 128.245 173.629 128.243 178.238L129.185 178.239L128.243 178.222V178.242C128.244 182.852 131.993 186.586 136.619 186.588H136.652L136.622 185.702V186.588H136.652L136.622 185.702V186.588H136.623C141.25 186.588 144.999 182.854 145.002 178.244L145.001 178.222L144.059 178.244Z" fill="#3F234F"/>
<path fill-rule="evenodd" clip-rule="evenodd" d="M147.459 34.2246C144.635 34.2246 141.911 34.6457 139.342 35.4218C134.655 15.7529 116.912 1.1218 95.7345 1.1218C74.6897 1.1218 57.0354 15.5735 52.2179 35.0576C50.0417 34.516 47.7666 34.2246 45.4223 34.2246C29.9879 34.2246 17.4755 46.6898 17.4755 62.0652C17.4755 77.4419 29.9879 89.9065 45.4223 89.9065H88.8997C91.1283 90.2462 93.4108 90.423 95.7345 90.423C98.0589 90.423 100.341 90.2462 102.57 89.9065H147.459C162.892 89.9065 175.404 77.4419 175.404 62.0652C175.404 46.6898 162.892 34.2246 147.459 34.2246Z" fill="#567DF4"/>
<path fill-rule="evenodd" clip-rule="evenodd" d="M88.8994 89.9064C91.1281 90.2461 93.4105 90.4229 95.7342 90.4229C98.0586 90.4229 100.341 90.2461 102.57 89.9064H147.458C162.892 89.9064 175.404 77.4418 175.404 62.0651C175.404 46.6897 162.892 34.2245 147.458 34.2245C144.635 34.2245 141.91 34.6456 139.341 35.4217C139.341 35.4217 163.027 38.5458 163.027 61.8016C163.027 85.058 142.231 83.4324 142.231 83.4324H40.0707C40.0707 83.4324 33.9704 83.3927 26.4071 82.461C31.3954 87.0783 38.076 89.9064 45.422 89.9064H88.8994Z" fill="#415EB6"/>
<path fill-rule="evenodd" clip-rule="evenodd" d="M56.8087 42.0904C56.8087 42.0904 71.9911 -4.44897 119.372 7.83413C112.509 3.58173 104.412 1.1218 95.7345 1.1218C74.6897 1.1218 57.0354 15.5735 52.2179 35.0576C50.0417 34.516 47.7666 34.2246 45.4223 34.2246C29.9879 34.2246 17.4755 46.6898 17.4755 62.0652C17.4755 66.3646 18.4553 70.4356 20.202 74.0702C20.5689 60.1343 25.6058 36.1707 56.8087 42.0904Z" fill="#DDEEFB"/>
<path fill-rule="evenodd" clip-rule="evenodd" d="M148.931 198.581L51.8141 207.922C46.7374 208.41 42.1824 204.672 41.6925 199.614L35.6095 136.845C35.1196 131.788 38.8723 127.25 43.9491 126.762L141.065 117.421C146.142 116.933 150.697 120.672 151.188 125.729L157.27 188.498C157.761 193.556 154.007 198.093 148.931 198.581Z" fill="#8CB7D7"/>
<path fill-rule="evenodd" clip-rule="evenodd" d="M148.931 198.581L148.84 197.648L51.7242 206.987C51.455 207.013 51.1878 207.026 50.9226 207.026C46.6999 207.029 43.0402 203.794 42.6301 199.524L36.5477 136.755C36.5218 136.487 36.5092 136.221 36.5092 135.957C36.5065 131.751 39.7534 128.104 44.0399 127.696L141.156 118.356C141.426 118.33 141.693 118.317 141.958 118.317C146.18 118.315 149.84 121.549 150.25 125.82L156.333 188.588C156.359 188.856 156.372 189.122 156.372 189.386C156.375 193.593 153.126 197.24 148.84 197.648L148.931 198.581L149.022 199.516C154.29 199.004 158.253 194.56 158.256 189.386C158.256 189.062 158.24 188.736 158.208 188.408L152.126 125.64C151.612 120.391 147.151 116.443 141.958 116.44C141.633 116.44 141.305 116.455 140.975 116.487L43.8591 125.828C38.5903 126.339 34.6275 130.783 34.6248 135.957C34.6248 136.281 34.6408 136.608 34.672 136.935L40.7551 199.704C41.2682 204.953 45.7295 208.9 50.9226 208.903C51.2476 208.903 51.5753 208.888 51.905 208.856L149.022 199.516L148.931 198.581Z" fill="#22215B"/>
<path fill-rule="evenodd" clip-rule="evenodd" d="M140.834 191.629L58.4266 199.555C54.2226 199.959 50.4512 196.864 50.0451 192.675L45.1405 142.064C44.7351 137.876 47.8424 134.118 52.0465 133.715L134.454 125.788C138.657 125.384 142.429 128.48 142.835 132.668L147.74 183.279C148.146 187.467 145.038 191.225 140.834 191.629Z" fill="#FFFFFE"/>
<path fill-rule="evenodd" clip-rule="evenodd" d="M58.4263 199.554L140.833 191.628C145.038 191.224 148.146 187.467 147.739 183.278L145.221 157.294L139.62 151.518C137.185 149.008 133.04 149.407 131.132 152.335L114.929 177.206L107.982 170.042C105.409 167.389 101.028 167.81 99.0131 170.905L93.2058 179.819L70.9188 156.836C68.3638 154.202 64.0082 154.635 62.0268 157.722L48.6736 178.528L50.0448 192.675C50.4509 196.863 54.2222 199.959 58.4263 199.554Z" fill="#FFFFFE"/>
<path fill-rule="evenodd" clip-rule="evenodd" d="M93.2062 179.819L70.9192 156.836C68.3642 154.202 64.0086 154.635 62.0272 157.722L60.8507 159.557L92.5921 188.655C92.5921 188.655 95.5804 186.225 93.2062 179.819Z" fill="#D8FFFF"/>
<path fill-rule="evenodd" clip-rule="evenodd" d="M115.014 188.62C115.014 188.62 119.913 184.394 114.929 177.206L107.982 170.042C105.409 167.389 101.029 167.811 99.0133 170.905L98.0362 172.404L115.014 188.62Z" fill="#D8FFFF"/>
<path fill-rule="evenodd" clip-rule="evenodd" d="M139.621 151.518C137.185 149.008 133.04 149.407 131.132 152.335L130.632 153.102L146.467 170.147L145.221 157.294L139.621 151.518Z" fill="#D8FFFF"/>
<path fill-rule="evenodd" clip-rule="evenodd" d="M58.4264 199.555L58.5175 200.489L140.924 192.563C145.372 192.131 148.715 188.382 148.717 184.014C148.717 183.741 148.704 183.465 148.677 183.189L146.159 157.204C146.138 156.992 146.047 156.795 145.899 156.642L140.298 150.866C139.034 149.561 137.359 148.922 135.708 148.923C133.645 148.92 131.582 149.92 130.342 151.824L114.784 175.706L108.66 169.39C107.334 168.022 105.578 167.351 103.847 167.353C101.685 167.35 99.5224 168.397 98.2229 170.394L93.0604 178.318L71.5962 156.185C70.2835 154.83 68.544 154.165 66.8298 154.167C64.673 154.165 62.5175 155.216 61.2333 157.217L47.8801 178.023C47.7671 178.199 47.7159 178.41 47.7365 178.618L49.1071 192.765C49.5411 197.196 53.3045 200.526 57.6886 200.529C57.9625 200.529 58.239 200.515 58.5168 200.489H58.5175L58.4264 199.555L58.3367 198.62C58.1187 198.641 57.9027 198.651 57.6886 198.651C54.2749 198.654 51.3131 196.037 50.9828 192.585L49.6428 178.761L62.8206 158.228C63.7458 156.788 65.2739 156.047 66.8298 156.045C68.0648 156.046 69.2925 156.512 70.2409 157.489L92.528 180.471C92.7268 180.676 93.0112 180.781 93.2964 180.753C93.5809 180.726 93.8401 180.569 93.9956 180.33L99.8035 171.415C100.743 169.974 102.281 169.233 103.847 169.23C105.099 169.232 106.343 169.704 107.305 170.694L114.252 177.858C114.451 178.063 114.735 178.167 115.02 178.14C115.305 178.113 115.564 177.956 115.72 177.717L131.922 152.846C132.802 151.496 134.241 150.803 135.708 150.8C136.88 150.802 138.043 151.244 138.943 152.17L144.315 157.711L146.802 183.369C146.823 183.585 146.834 183.801 146.834 184.014C146.836 187.415 144.208 190.366 140.743 190.695L58.336 198.62H58.3367L58.4264 199.555Z" fill="#22215B"/>
<path fill-rule="evenodd" clip-rule="evenodd" d="M140.834 191.628L140.743 190.695L58.3359 198.62C58.1186 198.641 57.9026 198.651 57.6886 198.651C54.2748 198.654 51.313 196.036 50.9827 192.584L46.0781 141.974C46.0568 141.757 46.0468 141.542 46.0468 141.329C46.0442 137.928 48.6716 134.977 52.1366 134.648L134.544 126.723C134.762 126.701 134.978 126.691 135.192 126.691C138.604 126.689 141.567 129.307 141.898 132.759L146.802 183.369C146.823 183.586 146.834 183.801 146.834 184.013C146.836 187.414 144.208 190.366 140.743 190.695L140.924 192.563C145.372 192.131 148.715 188.382 148.717 184.013C148.717 183.741 148.705 183.465 148.677 183.188L143.773 132.578C143.339 128.148 139.575 124.817 135.192 124.814C134.917 124.814 134.641 124.827 134.363 124.855L51.9558 132.78C47.5078 133.212 44.1652 136.961 44.1625 141.329C44.1625 141.602 44.1758 141.877 44.2024 142.154L49.107 192.765C49.541 197.196 53.3044 200.526 57.6886 200.528C57.9624 200.528 58.2389 200.515 58.5167 200.489L140.924 192.563L140.834 191.628Z" fill="#22215B"/>
<path fill-rule="evenodd" clip-rule="evenodd" d="M123.916 146.393C124.353 150.903 121.038 154.911 116.511 155.347C111.984 155.782 107.96 152.479 107.524 147.969C107.086 143.459 110.402 139.451 114.928 139.016C119.455 138.58 123.478 141.883 123.916 146.393Z" fill="#34DEDE"/>
<path fill-rule="evenodd" clip-rule="evenodd" d="M116.27 152.853C112.169 153.248 108.492 150.571 107.508 146.712C107.485 147.126 107.482 147.544 107.524 147.97C107.961 152.479 111.984 155.782 116.511 155.347C121.038 154.911 124.353 150.903 123.917 146.393C123.875 145.968 123.792 145.558 123.69 145.157C123.465 149.131 120.369 152.459 116.27 152.853Z" fill="#11A4A4"/>
<path fill-rule="evenodd" clip-rule="evenodd" d="M123.917 146.393L122.979 146.483C123.002 146.721 123.013 146.957 123.013 147.191C123.013 150.885 120.191 154.052 116.42 154.413C116.182 154.436 115.945 154.447 115.71 154.447C112.002 154.447 108.823 151.635 108.461 147.879C108.438 147.641 108.427 147.405 108.427 147.171C108.426 143.477 111.249 140.311 115.019 139.95C115.258 139.927 115.495 139.916 115.73 139.916C119.438 139.916 122.616 142.727 122.979 146.483L123.917 146.393L124.854 146.303C124.394 141.576 120.404 138.039 115.73 138.039C115.435 138.039 115.137 138.053 114.838 138.082C110.093 138.54 106.543 142.514 106.543 147.171C106.543 147.465 106.557 147.762 106.586 148.06C107.045 152.787 111.036 156.323 115.71 156.324C116.005 156.324 116.302 156.31 116.601 156.281C121.346 155.823 124.896 151.847 124.897 147.191C124.897 146.897 124.883 146.601 124.854 146.303L123.917 146.393Z" fill="#22215B"/>
<path fill-rule="evenodd" clip-rule="evenodd" d="M132.759 89.9065V130.996C132.759 131.514 133.181 131.934 133.701 131.934C134.221 131.934 134.643 131.514 134.643 130.996V89.9065C134.643 89.388 134.221 88.9682 133.701 88.9682C133.181 88.9682 132.759 89.388 132.759 89.9065Z" fill="#22215B"/>
<path fill-rule="evenodd" clip-rule="evenodd" d="M54.1264 89.9065V137.938C54.1264 138.457 54.5478 138.877 55.0683 138.877C55.5887 138.877 56.0101 138.457 56.0101 137.938V89.9065C56.0101 89.388 55.5887 88.9682 55.0683 88.9682C54.5478 88.9682 54.1264 89.388 54.1264 89.9065Z" fill="#22215B"/>
<path fill-rule="evenodd" clip-rule="evenodd" d="M58.5481 137.938C58.5481 139.853 56.9907 141.405 55.0685 141.405C53.1463 141.405 51.589 139.853 51.589 137.938C51.589 136.024 53.1463 134.472 55.0685 134.472C56.9907 134.472 58.5481 136.024 58.5481 137.938Z" fill="#22215B"/>
<path fill-rule="evenodd" clip-rule="evenodd" d="M137.181 130.996C137.181 132.911 135.623 134.462 133.701 134.462C131.78 134.462 130.222 132.911 130.222 130.996C130.222 129.081 131.78 127.529 133.701 127.529C135.623 127.529 137.181 129.081 137.181 130.996Z" fill="#22215B"/>
<path fill-rule="evenodd" clip-rule="evenodd" d="M66.5241 220.104C66.465 219.729 66.4344 219.345 66.4344 218.955V218.952L66.4384 207.458L72.667 206.859L72.665 213.438V213.433V213.441C72.6663 215.173 73.2346 216.777 74.1951 218.077L66.5241 220.104Z" fill="#52748B"/>
<path fill-rule="evenodd" clip-rule="evenodd" d="M65.4919 220.376L65.8262 207.517L66.4384 207.458L66.4344 218.952L66.4337 218.954H66.4344V218.955C66.4344 219.345 66.465 219.729 66.5241 220.104L65.4919 220.376Z" fill="#281634"/>
<path fill-rule="evenodd" clip-rule="evenodd" d="M113.53 204.119L112.649 203.014L114.56 202.83L113.53 204.119ZM132.502 202.671L131.341 201.216L135.561 200.81L134.495 202.144L132.502 202.671Z" fill="#B6B8B5"/>
<path fill-rule="evenodd" clip-rule="evenodd" d="M76.2024 217.547C75.1775 216.471 74.55 215.029 74.5487 213.445L74.5494 213.439L74.5514 206.677L103.55 203.888L108.222 209.086L76.2024 217.547ZM113.914 207.582C113.873 207.251 113.817 206.905 113.744 206.54C113.948 206.493 114.134 206.377 114.267 206.211L117.169 202.579L120.964 202.214L123.427 205.068L113.914 207.582ZM137.548 201.337L138.17 200.559L141.821 200.208L137.548 201.337Z" fill="#B6B8B5"/>
<path fill-rule="evenodd" clip-rule="evenodd" d="M108.222 209.086L103.55 203.888L110.414 203.229L112.793 206.211C112.971 206.434 113.244 206.565 113.53 206.565C113.53 206.565 113.53 206.565 113.53 206.565C113.603 206.565 113.674 206.557 113.744 206.54C113.818 206.904 113.873 207.251 113.914 207.582L108.222 209.086Z" fill="#90A5A9"/>
<path fill-rule="evenodd" clip-rule="evenodd" d="M123.427 205.069L120.964 202.214L129.106 201.431L130.514 203.196L123.427 205.069Z" fill="#90A5A9"/>
<path fill-rule="evenodd" clip-rule="evenodd" d="M113.53 206.565C113.53 206.565 113.53 206.565 113.53 206.565C113.244 206.565 112.971 206.434 112.793 206.211L110.414 203.229L112.649 203.014L113.53 204.119L114.561 202.83L117.169 202.579L114.267 206.211C114.134 206.378 113.948 206.493 113.744 206.54C113.674 206.557 113.603 206.565 113.53 206.565ZM130.514 203.196L129.106 201.431L131.341 201.216L132.502 202.671L130.514 203.196ZM134.495 202.144L135.561 200.81L138.17 200.559L137.547 201.337L134.495 202.144Z" fill="#281634"/>
<path fill-rule="evenodd" clip-rule="evenodd" d="M74.1951 218.077C73.2346 216.777 72.6663 215.173 72.665 213.441V213.438L72.667 206.859L74.5513 206.677L74.5494 213.439L74.5487 213.445C74.55 215.029 75.1775 216.471 76.2024 217.547L74.1951 218.077Z" fill="#281634"/>
<path fill-rule="evenodd" clip-rule="evenodd" d="M65.8263 207.517L65.8376 207.077L152.799 197.308L141.821 200.208L138.17 200.559L135.561 200.81L131.342 201.216L129.106 201.431L120.964 202.214L117.169 202.579L114.561 202.829L112.649 203.014L110.414 203.229L103.55 203.888L74.5514 206.677L72.6671 206.859L66.4384 207.458L65.8263 207.517Z" fill="#281634"/>
<path fill-rule="evenodd" clip-rule="evenodd" d="M202.386 164.361C202.386 165.962 201.083 167.261 199.475 167.261C197.868 167.261 196.565 165.962 196.565 164.361C196.565 162.76 197.868 161.462 199.475 161.462C201.083 161.462 202.386 162.76 202.386 164.361Z" fill="#22215B"/>
<path fill-rule="evenodd" clip-rule="evenodd" d="M221.495 167.021C221.495 167.821 220.843 168.471 220.04 168.471C219.236 168.471 218.584 167.821 218.584 167.021C218.584 166.22 219.236 165.571 220.04 165.571C220.843 165.571 221.495 166.22 221.495 167.021Z" fill="#22215B"/>
<path fill-rule="evenodd" clip-rule="evenodd" d="M11.7515 74.0702C11.7515 74.8714 11.1002 75.5203 10.2966 75.5203C9.49298 75.5203 8.84094 74.8714 8.84094 74.0702C8.84094 73.2696 9.49298 72.6207 10.2966 72.6207C11.1002 72.6207 11.7515 73.2696 11.7515 74.0702Z" fill="#22215B"/>
<path fill-rule="evenodd" clip-rule="evenodd" d="M200.931 82.8221C200.931 83.6233 200.279 84.2723 199.476 84.2723C198.672 84.2723 198.021 83.6233 198.021 82.8221C198.021 82.0216 198.672 81.3727 199.476 81.3727C200.279 81.3727 200.931 82.0216 200.931 82.8221Z" fill="#22215B"/>
<path fill-rule="evenodd" clip-rule="evenodd" d="M42.9815 106.359C42.9815 107.16 42.3302 107.809 41.5259 107.809C40.7223 107.809 40.071 107.16 40.071 106.359C40.071 105.559 40.7223 104.909 41.5259 104.909C42.3302 104.909 42.9815 105.559 42.9815 106.359Z" fill="#22215B"/>
<path fill-rule="evenodd" clip-rule="evenodd" d="M199.475 150.27C199.475 151.071 198.824 151.721 198.02 151.721C197.217 151.721 196.565 151.071 196.565 150.27C196.565 149.47 197.217 148.821 198.02 148.821C198.824 148.821 199.475 149.47 199.475 150.27Z" fill="#22215B"/>
<path fill-rule="evenodd" clip-rule="evenodd" d="M145.515 97.1553C145.515 97.9558 144.863 98.6047 144.06 98.6047C143.256 98.6047 142.605 97.9558 142.605 97.1553C142.605 96.3547 143.256 95.7051 144.06 95.7051C144.863 95.7051 145.515 96.3547 145.515 97.1553Z" fill="#22215B"/>
<path fill-rule="evenodd" clip-rule="evenodd" d="M22.0833 160.004C22.0833 160.805 21.4319 161.454 20.6283 161.454C19.824 161.454 19.1727 160.805 19.1727 160.004C19.1727 159.204 19.824 158.554 20.6283 158.554C21.4319 158.554 22.0833 159.204 22.0833 160.004Z" fill="#22215B"/>
<path fill-rule="evenodd" clip-rule="evenodd" d="M9.26101 81.3726C9.26101 82.9737 7.95759 84.2722 6.35041 84.2722C4.74324 84.2722 3.43982 82.9737 3.43982 81.3726C3.43982 79.7715 4.74324 78.473 6.35041 78.473C7.95759 78.473 9.26101 79.7715 9.26101 81.3726Z" fill="#22215B"/>
<path fill-rule="evenodd" clip-rule="evenodd" d="M195.739 92.8061C195.739 94.4072 194.436 95.705 192.829 95.705C191.221 95.705 189.918 94.4072 189.918 92.8061C189.918 91.2043 191.221 89.9065 192.829 89.9065C194.436 89.9065 195.739 91.2043 195.739 92.8061Z" fill="#22215B"/>
<path fill-rule="evenodd" clip-rule="evenodd" d="M13.2068 174.726C13.2068 176.327 11.9034 177.625 10.2962 177.625C8.6884 177.625 7.38565 176.327 7.38565 174.726C7.38565 173.125 8.6884 171.827 10.2962 171.827C11.9034 171.827 13.2068 173.125 13.2068 174.726Z" fill="#22215B"/>
<path fill-rule="evenodd" clip-rule="evenodd" d="M29.3176 114.485C29.3176 116.086 28.0149 117.384 26.407 117.384C24.7999 117.384 23.4971 116.086 23.4971 114.485C23.4971 112.884 24.7999 111.586 26.407 111.586C28.0149 111.586 29.3176 112.884 29.3176 114.485Z" fill="#22215B"/>
<path fill-rule="evenodd" clip-rule="evenodd" d="M65.9718 194.63L36.6372 165.405C35.2394 164.013 32.9736 164.013 31.5758 165.405L2.24119 194.63C-0.0133733 196.875 1.58317 200.716 4.77159 200.716H8.20329C10.18 200.716 11.7825 202.312 11.7825 204.281V240.057C11.7825 242.026 13.3844 243.622 15.3611 243.622H52.8519C54.8286 243.622 56.4305 242.026 56.4305 240.057V204.281C56.4305 202.312 58.033 200.716 60.0097 200.716H63.4414C66.6298 200.716 68.2264 196.875 65.9718 194.63Z" fill="#FFDE6C"/>
<path fill-rule="evenodd" clip-rule="evenodd" d="M56.4303 240.057V204.281C56.4303 202.312 58.0328 200.716 60.0089 200.716H63.4413C66.6297 200.716 68.2262 196.875 65.9717 194.63L61.9305 190.604C62.1119 193.786 61.4752 196.663 58.5712 196.663C52.0734 196.663 52.8145 204.602 52.8145 213.465C52.8145 220.188 52.7999 236.254 52.7932 243.622H52.8517C54.8285 243.622 56.4303 242.026 56.4303 240.057Z" fill="#CC8900"/>
<path fill-rule="evenodd" clip-rule="evenodd" d="M16.5569 190.999C21.0819 186.856 33.2946 175.268 40.0709 168.826L36.6372 165.405C35.2394 164.013 32.9736 164.013 31.5758 165.405L2.24119 194.63C-0.0133731 196.875 1.58317 200.716 4.77159 200.716H8.20328C10.18 200.716 11.7825 202.312 11.7825 204.281V240.057C11.7825 242.026 13.3844 243.622 15.3611 243.622H20.5362V200.654C20.5362 200.654 10.1534 196.861 16.5569 190.999Z" fill="#FFB110"/>
<path fill-rule="evenodd" clip-rule="evenodd" d="M65.9717 194.63L66.6384 193.966L37.3031 164.742C36.4225 163.864 35.2599 163.422 34.1061 163.423C32.9529 163.422 31.7904 163.864 30.9097 164.742L1.57444 193.966C0.667828 194.865 0.23978 196.019 0.243741 197.125C0.245098 198.285 0.689762 199.402 1.48072 200.249C2.26835 201.095 3.43219 201.658 4.7715 201.654H8.2032C8.93434 201.655 9.58771 201.947 10.0676 202.424C10.5462 202.902 10.8399 203.553 10.8399 204.281V240.057C10.8406 242.545 12.8639 244.56 15.361 244.56H52.8518C55.3489 244.56 57.3722 242.545 57.3729 240.057V204.281C57.3729 203.553 57.666 202.902 58.1452 202.424C58.6251 201.947 59.2785 201.655 60.0096 201.654H63.4413C64.7806 201.658 65.9445 201.095 66.7321 200.249C67.5224 199.402 67.9677 198.285 67.9691 197.125C67.973 196.019 67.545 194.865 66.6384 193.966L65.3057 195.294C65.8567 195.847 66.0814 196.48 66.0854 197.125C66.0867 197.799 65.8175 198.476 65.3549 198.967C64.8883 199.459 64.2595 199.774 63.4413 199.778H60.0096C57.5125 199.778 55.4892 201.793 55.4885 204.281V240.057C55.4879 240.786 55.1947 241.436 54.7162 241.914C54.2363 242.391 53.5829 242.683 52.8518 242.684H15.361C14.6299 242.683 13.9765 242.391 13.4966 241.914C13.0181 241.436 12.725 240.786 12.7243 240.057V204.281C12.7236 201.793 10.7004 199.778 8.2032 199.778H4.7715C3.95329 199.774 3.32385 199.459 2.85792 198.967C2.39531 198.476 2.12612 197.799 2.12744 197.125C2.13143 196.48 2.35609 195.847 2.9071 195.294L32.2423 166.069C32.7595 165.555 33.4288 165.301 34.1061 165.3C34.784 165.301 35.4534 165.555 35.9705 166.069L65.3057 195.294L65.9717 194.63Z" fill="#22215B"/>
</svg>
