<svg width="18" height="18" viewBox="0 0 18 18" fill="none" xmlns="http://www.w3.org/2000/svg">
<path d="M7.99989 12.6671C7.99989 12.9323 8.10525 13.1866 8.29278 13.3742C8.48032 13.5617 8.73467 13.6671 8.99988 13.6671C9.26509 13.6671 9.51944 13.5617 9.70697 13.3742C9.89451 13.1866 9.99986 12.9323 9.99986 12.6671C9.99986 12.4019 9.89451 12.1475 9.70697 11.96C9.51944 11.7725 9.26509 11.6671 8.99988 11.6671C8.73467 11.6671 8.48032 11.7725 8.29278 11.96C8.10525 12.1475 7.99989 12.4019 7.99989 12.6671ZM9.49987 10.3338C9.59154 10.3338 9.66653 10.2588 9.66653 10.1671V4.50055C9.66653 4.40888 9.59154 4.33388 9.49987 4.33388H8.49989C8.40822 4.33388 8.33322 4.40888 8.33322 4.50055V10.1671C8.33322 10.2588 8.40822 10.3338 8.49989 10.3338H9.49987ZM17.8331 6.41718H16.5977C16.5435 6.41718 16.4935 6.44218 16.4623 6.48593L14.2435 9.54422L13.204 8.11091C13.1886 8.08944 13.1682 8.07199 13.1447 8.06003C13.1211 8.04806 13.095 8.04194 13.0686 8.04216H11.8332C11.6978 8.04216 11.6186 8.19632 11.6978 8.30674L13.9727 11.4463C14.0039 11.4889 14.0446 11.5236 14.0917 11.5475C14.1387 11.5714 14.1908 11.5838 14.2435 11.5838C14.2963 11.5838 14.3484 11.5714 14.3954 11.5475C14.4425 11.5236 14.4832 11.4889 14.5144 11.4463L17.9685 6.68176C18.0477 6.57135 17.9685 6.41718 17.8331 6.41718ZM16.9164 12.7921H15.5789C15.4644 12.7921 15.3581 12.8525 15.2956 12.9483C14.9999 13.4181 14.6519 13.8528 14.2581 14.2441C13.5814 14.9214 12.7798 15.4612 11.8977 15.8337C10.9833 16.2194 10.0006 16.417 9.00821 16.4149C8.00614 16.4149 7.03324 16.2191 6.11867 15.8337C5.23663 15.4612 4.43507 14.9214 3.75829 14.2441C3.07933 13.5691 2.53868 12.768 2.16665 11.8858C1.77916 10.9734 1.58333 10.0005 1.58333 9.00048C1.58333 8.00049 1.77916 7.02759 2.16665 6.11511C2.53956 5.23179 3.07497 4.43805 3.75829 3.75681C4.44162 3.07557 5.23535 2.54016 6.11867 2.16725C7.0331 1.7816 8.01579 1.58392 9.00821 1.58601C10.0103 1.58601 10.9832 1.78184 11.8977 2.16725C12.7811 2.54016 13.5748 3.07557 14.2581 3.75681C14.654 4.15264 14.9998 4.58596 15.2956 5.05262C15.356 5.15054 15.4644 5.20887 15.5789 5.20887H16.9164C17.0414 5.20887 17.1206 5.07762 17.0664 4.96721C15.5998 2.05267 12.5977 0.0422855 9.11863 0.000619507C4.1437 -0.0577129 0.0104366 4.01097 2.01105e-05 8.98381C-0.0103964 13.9608 4.02704 18.0003 9.00821 18.0003C12.5332 18.0003 15.5831 15.9795 17.0643 13.0337C17.0771 13.0084 17.0832 12.9802 17.082 12.9519C17.0809 12.9235 17.0725 12.8959 17.0576 12.8717C17.0428 12.8475 17.0221 12.8275 16.9974 12.8136C16.9727 12.7996 16.9448 12.7922 16.9164 12.7921Z" fill="#33186B"/>
</svg>
