<svg width="34" height="30" viewBox="0 0 34 30" fill="none" xmlns="http://www.w3.org/2000/svg">
<path d="M20.8835 0.790394L17.9237 0L15.4295 9.27718L13.1776 0.901679L10.2177 1.69207L12.6507 10.7412L6.59065 4.70173L4.4239 6.86113L11.071 13.4857L2.79309 11.2752L2 14.2249L11.0447 16.6402C10.9411 16.1951 10.8864 15.7313 10.8864 15.2548C10.8864 11.8815 13.6302 9.14705 17.0149 9.14705C20.3996 9.14705 23.1434 11.8815 23.1434 15.2548C23.1434 15.7282 23.0893 16.1892 22.987 16.6317L31.207 18.8267L32 15.877L22.9194 13.4521L31.1979 11.2414L30.4047 8.2916L21.3245 10.7164L27.3845 4.67694L25.2177 2.51755L18.6628 9.05023L20.8835 0.790394Z" fill="#0073DD"/>
<path d="M22.9792 16.666C22.7254 17.7352 22.1897 18.6957 21.4546 19.4653L27.4096 25.4001L29.5763 23.2407L22.9792 16.666Z" fill="#0073DD"/>
<path d="M21.3942 19.5273C20.6503 20.2846 19.7101 20.8497 18.6558 21.141L20.8227 29.2005L23.7825 28.41L21.3942 19.5273Z" fill="#0073DD"/>
<path d="M18.5452 21.1706C18.056 21.2959 17.5433 21.3625 17.0149 21.3625C16.4488 21.3625 15.9007 21.286 15.3803 21.1428L13.2114 29.2097L16.1712 30L18.5452 21.1706Z" fill="#0073DD"/>
<path d="M15.2758 21.1131C14.2376 20.8074 13.3141 20.235 12.5854 19.4756L6.61572 25.425L8.78248 27.5844L15.2758 21.1131Z" fill="#0073DD"/>
<path d="M12.5354 19.4229C11.8191 18.6586 11.2974 17.7109 11.049 16.6582L2.80225 18.8604L3.59533 21.8102L12.5354 19.4229Z" fill="#0073DD"/>
</svg>
