<svg width="29" height="28" viewBox="0 0 29 28" fill="none" xmlns="http://www.w3.org/2000/svg">
<path d="M5.4286 19.1706C4.09496 18.2849 2.9957 17.0893 2.22482 15.6861C1.45393 14.283 1.03438 12.7139 1.00202 11.1133C0.969672 9.51264 1.32549 7.92796 2.03904 6.49479C2.75259 5.06162 3.80265 3.82259 5.09941 2.88368C6.39617 1.94477 7.90105 1.33391 9.48534 1.10334C11.0696 0.872774 12.6862 1.02936 14.1968 1.55971C15.7074 2.09006 17.067 2.97839 18.1595 4.14873C19.2519 5.31907 20.0447 6.73659 20.4699 8.28007C20.8817 8.20219 21.2998 8.16184 21.7189 8.1595C23.2328 8.16477 24.6942 8.71472 25.8359 9.7088C26.9776 10.7029 27.7234 12.0747 27.937 13.5734C28.1505 15.0721 27.8175 16.5976 26.9988 17.871C26.1802 19.1444 24.9306 20.0806 23.4784 20.5085" stroke="#51459E" stroke-width="1.5" stroke-linecap="round" stroke-linejoin="round"/>
<path d="M20.2701 19.2652H19.8672C19.7263 19.2644 19.5891 19.2201 19.4745 19.1383C19.3598 19.0564 19.2733 18.9411 19.2268 18.8081C19.1657 18.6806 19.1459 18.5372 19.1702 18.398C19.1946 18.2587 19.2618 18.1305 19.3625 18.0313L19.6426 17.7511C19.7064 17.6877 19.757 17.6124 19.7915 17.5293C19.826 17.4463 19.8438 17.3573 19.8438 17.2674C19.8438 17.1775 19.826 17.0885 19.7915 17.0055C19.757 16.9225 19.7064 16.8471 19.6426 16.7837L18.6745 15.8083C18.611 15.7444 18.5355 15.6937 18.4524 15.6591C18.3692 15.6245 18.28 15.6067 18.19 15.6067C18.0999 15.6067 18.0108 15.6245 17.9276 15.6591C17.8445 15.6937 17.769 15.7444 17.7055 15.8083L17.4261 16.0877C17.327 16.1885 17.1988 16.2559 17.0596 16.2803C16.9203 16.3048 16.7768 16.2852 16.6493 16.2241C16.5126 16.1795 16.3934 16.0929 16.3089 15.9766C16.2244 15.8603 16.1787 15.7203 16.1785 15.5765V15.1736C16.1783 14.9928 16.1064 14.8194 15.9784 14.6916C15.8505 14.5638 15.6771 14.4921 15.4962 14.4921H14.1331C13.9523 14.4921 13.7789 14.5638 13.6509 14.6916C13.523 14.8194 13.451 14.9928 13.4508 15.1736V15.5765C13.4501 15.7174 13.4058 15.8545 13.3239 15.9692C13.2421 16.0839 13.1268 16.1704 12.9938 16.2169C12.8663 16.278 12.7229 16.2978 12.5836 16.2735C12.4444 16.2491 12.3162 16.1819 12.2169 16.0812L11.9368 15.801C11.8734 15.7373 11.798 15.6867 11.715 15.6522C11.632 15.6177 11.543 15.5999 11.4531 15.5999C11.3632 15.5999 11.2742 15.6177 11.1911 15.6522C11.1081 15.6867 11.0327 15.7373 10.9693 15.801L9.99393 16.7692C9.93005 16.8327 9.87936 16.9082 9.84477 16.9913C9.81018 17.0745 9.79238 17.1636 9.79238 17.2537C9.79238 17.3437 9.81018 17.4329 9.84477 17.516C9.87936 17.5992 9.93005 17.6747 9.99393 17.7381L10.2733 18.0176C10.3742 18.1167 10.4415 18.2449 10.466 18.3841C10.4905 18.5234 10.4708 18.6669 10.4098 18.7944C10.3632 18.9275 10.2766 19.0429 10.1618 19.1247C10.047 19.2066 9.90966 19.2508 9.76867 19.2514H9.3593C9.17847 19.2516 9.00511 19.3236 8.87732 19.4515C8.74952 19.5795 8.67773 19.7529 8.67773 19.9337V21.2976C8.67793 21.4783 8.74979 21.6515 8.87757 21.7793C9.00535 21.9071 9.17859 21.9789 9.3593 21.9791H9.76217C9.90316 21.9794 10.0406 22.0235 10.1554 22.1054C10.2701 22.1873 10.3565 22.3029 10.4026 22.4362C10.4637 22.5637 10.4835 22.7071 10.4591 22.8463C10.4348 22.9856 10.3676 23.1138 10.2668 23.213L9.98671 23.4932C9.92297 23.5566 9.87238 23.6319 9.83787 23.715C9.80335 23.798 9.78558 23.887 9.78558 23.9769C9.78558 24.0668 9.80335 24.1558 9.83787 24.2388C9.87238 24.3218 9.92297 24.3972 9.98671 24.4606L10.9484 25.4223C11.0118 25.4862 11.0872 25.5368 11.1703 25.5714C11.2534 25.606 11.3425 25.6238 11.4325 25.6238C11.5225 25.6238 11.6116 25.606 11.6947 25.5714C11.7778 25.5368 11.8532 25.4862 11.9166 25.4223L12.196 25.1429C12.2955 25.0424 12.4238 24.9752 12.5631 24.9508C12.7024 24.9263 12.8458 24.9458 12.9736 25.0065C13.1067 25.053 13.2221 25.1396 13.3039 25.2544C13.3858 25.3693 13.43 25.5066 13.4306 25.6476V26.0844C13.4308 26.2651 13.5027 26.4383 13.6305 26.5661C13.7582 26.6939 13.9315 26.7658 14.1122 26.766H15.4767C15.6575 26.766 15.8309 26.6941 15.9587 26.5663C16.0865 26.4385 16.1583 26.2652 16.1583 26.0844V25.6815C16.1585 25.5406 16.2025 25.4033 16.2843 25.2885C16.366 25.1737 16.4815 25.0873 16.6146 25.0411C16.7422 24.9798 16.8857 24.96 17.0252 24.9843C17.1646 25.0086 17.2929 25.076 17.3922 25.1768L17.6716 25.457C17.7351 25.5207 17.8105 25.5713 17.8936 25.6059C17.9767 25.6404 18.0657 25.6582 18.1557 25.6582C18.2457 25.6582 18.3347 25.6404 18.4178 25.6059C18.5009 25.5713 18.5763 25.5207 18.6398 25.457L19.6015 24.4953C19.6653 24.4319 19.716 24.3564 19.7506 24.2734C19.7852 24.1903 19.803 24.1012 19.803 24.0112C19.803 23.9212 19.7852 23.8321 19.7506 23.749C19.716 23.6659 19.6653 23.5905 19.6015 23.5271L19.3221 23.2477C19.2219 23.148 19.1549 23.0198 19.1304 22.8806C19.1058 22.7414 19.1249 22.598 19.1849 22.4701C19.231 22.3366 19.3177 22.2208 19.4327 22.1389C19.5478 22.057 19.6855 22.013 19.8268 22.0131H20.2701C20.4508 22.0129 20.624 21.941 20.7518 21.8132C20.8796 21.6855 20.9514 21.5122 20.9516 21.3315V19.9474C20.9516 19.7666 20.8798 19.5932 20.752 19.4653C20.6242 19.3373 20.4509 19.2654 20.2701 19.2652Z" stroke="#51459E" stroke-linecap="round" stroke-linejoin="round"/>
<path d="M14.8143 22.4341C15.293 22.4341 15.7521 22.2439 16.0906 21.9054C16.4291 21.5669 16.6192 21.1078 16.6192 20.6291C16.6192 20.1504 16.4291 19.6913 16.0906 19.3528C15.7521 19.0143 15.293 18.8241 14.8143 18.8241C14.3355 18.8241 13.8764 19.0143 13.5379 19.3528C13.1994 19.6913 13.0093 20.1504 13.0093 20.6291C13.0093 21.1078 13.1994 21.5669 13.5379 21.9054C13.8764 22.2439 14.3355 22.4341 14.8143 22.4341Z" stroke="#344054" stroke-linecap="round" stroke-linejoin="round"/>
</svg>
