<svg width="18" height="18" viewBox="0 0 18 18" fill="none" xmlns="http://www.w3.org/2000/svg">
<path d="M2.57143 0C1.88944 0 1.23539 0.270917 0.753154 0.753154C0.270917 1.23539 0 1.88944 0 2.57143V15.4286C0 16.1106 0.270917 16.7646 0.753154 17.2468C1.23539 17.7291 1.88944 18 2.57143 18H15.4286C16.1106 18 16.7646 17.7291 17.2468 17.2468C17.7291 16.7646 18 16.1106 18 15.4286V2.57143C18 1.88944 17.7291 1.23539 17.2468 0.753154C16.7646 0.270917 16.1106 0 15.4286 0H2.57143ZM9 9C9.1705 9 9.33401 9.06773 9.45457 9.18829C9.57513 9.30885 9.64286 9.47236 9.64286 9.64286V13.5C9.64286 13.6705 9.57513 13.834 9.45457 13.9546C9.33401 14.0751 9.1705 14.1429 9 14.1429C8.8295 14.1429 8.66599 14.0751 8.54543 13.9546C8.42487 13.834 8.35714 13.6705 8.35714 13.5V9.64286C8.35714 9.47236 8.42487 9.30885 8.54543 9.18829C8.66599 9.06773 8.8295 9 9 9ZM3.85714 7.07143C3.85714 6.90093 3.92487 6.73742 4.04543 6.61686C4.16599 6.4963 4.3295 6.42857 4.5 6.42857C4.6705 6.42857 4.83401 6.4963 4.95457 6.61686C5.07513 6.73742 5.14286 6.90093 5.14286 7.07143V13.5C5.14286 13.6705 5.07513 13.834 4.95457 13.9546C4.83401 14.0751 4.6705 14.1429 4.5 14.1429C4.3295 14.1429 4.16599 14.0751 4.04543 13.9546C3.92487 13.834 3.85714 13.6705 3.85714 13.5V7.07143ZM13.5 3.85714C13.6705 3.85714 13.834 3.92487 13.9546 4.04543C14.0751 4.16599 14.1429 4.3295 14.1429 4.5V13.5C14.1429 13.6705 14.0751 13.834 13.9546 13.9546C13.834 14.0751 13.6705 14.1429 13.5 14.1429C13.3295 14.1429 13.166 14.0751 13.0454 13.9546C12.9249 13.834 12.8571 13.6705 12.8571 13.5V4.5C12.8571 4.3295 12.9249 4.16599 13.0454 4.04543C13.166 3.92487 13.3295 3.85714 13.5 3.85714Z" fill="#33186B"/>
</svg>
